<svg xmlns="http://www.w3.org/2000/svg" xmlns:xlink="http://www.w3.org/1999/xlink" width="122" zoomAndPan="magnify" viewBox="0 0 91.5 91.499997" height="122" preserveAspectRatio="xMidYMid meet" version="1.0"><defs><clipPath id="126c951a18"><path d="M 23.445312 16.324219 L 66.707031 16.324219 L 66.707031 74.503906 L 23.445312 74.503906 Z M 23.445312 16.324219 " clip-rule="nonzero"/></clipPath></defs><path fill="#374f59" d="M 14.484375 14.054688 C 13.785156 14.652344 13.113281 15.269531 12.472656 15.902344 C 5.3125 22.960938 1.695312 32.179688 1.617188 41.6875 C 1.546875 51.1875 5.003906 60.964844 12 69.164062 C 12.730469 70.019531 13.5 70.863281 14.308594 71.683594 C 22.789062 80.28125 33.914062 85.121094 45.050781 85.992188 C 56.203125 86.867188 67.371094 83.765625 75.90625 76.480469 C 76.609375 75.882812 77.277344 75.265625 77.925781 74.632812 C 85.078125 67.574219 88.699219 58.355469 88.773438 48.84375 C 88.851562 39.347656 85.386719 29.566406 78.390625 21.371094 C 77.660156 20.511719 76.890625 19.671875 76.085938 18.851562 C 67.605469 10.25 56.476562 5.410156 45.339844 4.539062 C 34.1875 3.667969 23.027344 6.769531 14.484375 14.054688 Z M 13.335938 16.78125 C 13.960938 16.167969 14.609375 15.574219 15.285156 14.996094 C 23.566406 7.929688 34.40625 4.925781 45.242188 5.773438 C 56.097656 6.625 66.941406 11.339844 75.203125 19.714844 C 75.992188 20.519531 76.742188 21.339844 77.457031 22.171875 C 84.25 30.136719 87.609375 39.632812 87.539062 48.832031 C 87.464844 58.023438 83.972656 66.933594 77.058594 73.746094 C 76.433594 74.359375 75.78125 74.960938 75.105469 75.539062 C 66.828125 82.601562 55.984375 85.609375 45.148438 84.757812 C 34.292969 83.910156 23.449219 79.195312 15.191406 70.8125 C 14.402344 70.015625 13.648438 69.195312 12.9375 68.363281 C 6.140625 60.398438 2.78125 50.902344 2.851562 41.699219 C 2.925781 32.511719 6.421875 23.601562 13.335938 16.78125 " fill-opacity="1" fill-rule="nonzero"/><path fill="#e0e6e9" d="M 31.894531 7.390625 C 10.972656 14.738281 -0.0273438 37.648438 7.320312 58.570312 C 14.664062 79.488281 37.578125 90.492188 58.496094 83.144531 C 79.417969 75.796875 90.421875 52.882812 83.078125 31.964844 C 75.730469 11.046875 52.8125 0.0390625 31.894531 7.390625 " fill-opacity="1" fill-rule="evenodd"/><path fill="#e0e6e9" d="M 29.703125 85.675781 C 21.148438 83.6875 16.9375 80.464844 10.492188 72.035156 C 4.046875 63.609375 2.8125 76.125 13.226562 81.578125 C 23.632812 87.035156 38.257812 87.65625 29.703125 85.675781 " fill-opacity="1" fill-rule="evenodd"/><path fill="#e0e6e9" d="M 58.636719 3.925781 C 67.1875 5.910156 71.398438 9.128906 77.84375 17.558594 C 84.289062 25.984375 85.523438 13.476562 75.117188 8.019531 C 64.703125 2.566406 50.082031 1.945312 58.636719 3.925781 " fill-opacity="1" fill-rule="evenodd"/><path fill="#6e9277" d="M 44.402344 29.1875 C 44.402344 29.1875 43.886719 24.941406 39.359375 24.289062 C 39.359375 24.289062 39.265625 29.328125 44.402344 29.1875 " fill-opacity="1" fill-rule="nonzero"/><g clip-path="url(#126c951a18)"><path fill="#374f59" d="M 64.3125 66.1875 L 58.769531 71.734375 C 58.65625 71.84375 58.5 71.910156 58.339844 71.910156 L 32.136719 71.910156 C 31.976562 71.910156 31.824219 71.84375 31.710938 71.734375 L 26.164062 66.1875 C 25.945312 65.96875 25.925781 65.621094 26.117188 65.382812 L 35.40625 53.707031 C 37.398438 53.644531 40.976562 54.023438 44.1875 56.953125 C 45.28125 57.945312 46.511719 58.613281 47.785156 59.015625 C 44.777344 49.4375 45.238281 35.527344 45.238281 35.527344 C 45.238281 35.46875 45.242188 35.417969 45.242188 35.363281 C 45.179688 33.195312 45.574219 31.292969 46.21875 29.621094 C 48.5625 23.5625 54.296875 20.707031 54.296875 20.707031 C 50.046875 23.574219 47.996094 26.832031 47.039062 29.621094 C 45.753906 33.339844 46.40625 38.964844 46.40625 38.964844 L 46.417969 38.957031 C 46.75 46.601562 49.65625 55.308594 51.214844 59.484375 C 53.859375 59.4375 56.339844 58.507812 57.828125 57.171875 L 64.359375 65.382812 C 64.550781 65.621094 64.53125 65.96875 64.3125 66.1875 Z M 66.113281 63.984375 L 50.203125 43.980469 C 49.769531 43.4375 49.535156 42.765625 49.535156 42.070312 L 49.535156 35.316406 L 50.792969 35.316406 C 52.363281 35.316406 53.640625 34.039062 53.640625 32.46875 C 53.640625 30.898438 52.363281 29.621094 50.792969 29.621094 L 47.515625 29.621094 C 48.144531 27.933594 49.355469 26.648438 52.570312 26.773438 C 61.460938 27.125 61.53125 16.621094 61.53125 16.621094 C 61.527344 16.535156 61.527344 16.429688 61.523438 16.320312 C 49.394531 16.558594 46.078125 24.0625 45.289062 29.621094 L 39.683594 29.621094 C 38.117188 29.621094 36.835938 30.898438 36.835938 32.46875 C 36.835938 34.039062 38.117188 35.316406 39.683594 35.316406 L 40.945312 35.316406 L 40.945312 42.070312 C 40.945312 42.765625 40.710938 43.4375 40.277344 43.980469 L 24.367188 63.984375 C 23.460938 65.117188 23.554688 66.75 24.582031 67.773438 L 30.125 73.316406 C 30.660156 73.851562 31.382812 74.152344 32.136719 74.152344 L 58.339844 74.152344 C 59.09375 74.152344 59.820312 73.851562 60.351562 73.316406 L 65.898438 67.773438 C 66.921875 66.75 67.015625 65.117188 66.113281 63.984375 " fill-opacity="1" fill-rule="nonzero"/></g><path fill="#6e9277" d="M 41.015625 66.316406 C 41.015625 68.175781 39.511719 69.679688 37.65625 69.679688 C 35.800781 69.679688 34.296875 68.175781 34.296875 66.316406 C 34.296875 64.460938 35.800781 62.957031 37.65625 62.957031 C 39.511719 62.957031 41.015625 64.460938 41.015625 66.316406 " fill-opacity="1" fill-rule="nonzero"/><path fill="#6e9277" d="M 47.039062 64.453125 C 47.039062 65.613281 46.097656 66.554688 44.9375 66.554688 C 43.777344 66.554688 42.835938 65.613281 42.835938 64.453125 C 42.835938 63.292969 43.777344 62.351562 44.9375 62.351562 C 46.097656 62.351562 47.039062 63.292969 47.039062 64.453125 " fill-opacity="1" fill-rule="nonzero"/><path fill="#6e9277" d="M 43.398438 58.992188 C 43.398438 59.648438 42.863281 60.183594 42.207031 60.183594 C 41.550781 60.183594 41.015625 59.648438 41.015625 58.992188 C 41.015625 58.335938 41.550781 57.800781 42.207031 57.800781 C 42.863281 57.800781 43.398438 58.335938 43.398438 58.992188 " fill-opacity="1" fill-rule="nonzero"/></svg>