<svg xmlns="http://www.w3.org/2000/svg" xmlns:xlink="http://www.w3.org/1999/xlink" width="173" zoomAndPan="magnify" viewBox="0 0 129.75 50.249999" height="67" preserveAspectRatio="xMidYMid meet" version="1.0"><defs><g/><clipPath id="083718f773"><path d="M 105.179688 14 L 125 14 L 125 33 L 105.179688 33 Z M 105.179688 14 " clip-rule="nonzero"/></clipPath><clipPath id="f250243c70"><path d="M 110.339844 17.070312 L 119.949219 17.070312 L 119.949219 29.632812 L 110.339844 29.632812 Z M 110.339844 17.070312 " clip-rule="nonzero"/></clipPath><clipPath id="378d855074"><path d="M 115 29 L 128 29 L 128 36 L 115 36 Z M 115 29 " clip-rule="nonzero"/></clipPath><clipPath id="f570d13b88"><path d="M 118.300781 25.886719 L 128.46875 33.265625 L 125.433594 37.453125 L 115.261719 30.074219 Z M 118.300781 25.886719 " clip-rule="nonzero"/></clipPath><clipPath id="eb5d4fc4fd"><path d="M 118.300781 25.886719 L 128.46875 33.265625 L 125.433594 37.453125 L 115.261719 30.074219 Z M 118.300781 25.886719 " clip-rule="nonzero"/></clipPath><clipPath id="cd3389c88c"><path d="M 118.300781 25.886719 L 128.46875 33.265625 L 125.433594 37.453125 L 115.261719 30.074219 Z M 118.300781 25.886719 " clip-rule="nonzero"/></clipPath></defs><g clip-path="url(#083718f773)"><path fill="#374f59" d="M 108.367188 16.574219 C 108.214844 16.703125 108.066406 16.839844 107.925781 16.980469 C 106.351562 18.53125 105.554688 20.5625 105.535156 22.65625 C 105.519531 24.746094 106.28125 26.898438 107.820312 28.703125 C 107.980469 28.890625 108.152344 29.078125 108.328125 29.257812 C 110.195312 31.152344 112.644531 32.214844 115.097656 32.410156 C 117.550781 32.601562 120.011719 31.917969 121.890625 30.3125 C 122.042969 30.183594 122.191406 30.046875 122.332031 29.90625 C 123.910156 28.355469 124.707031 26.324219 124.722656 24.230469 C 124.738281 22.140625 123.976562 19.988281 122.4375 18.183594 C 122.277344 17.992188 122.105469 17.808594 121.929688 17.628906 C 120.0625 15.734375 117.613281 14.667969 115.160156 14.476562 C 112.707031 14.285156 110.25 14.96875 108.367188 16.574219 Z M 108.117188 17.171875 C 108.253906 17.039062 108.394531 16.90625 108.546875 16.78125 C 110.367188 15.222656 112.753906 14.5625 115.140625 14.75 C 117.527344 14.9375 119.917969 15.976562 121.734375 17.820312 C 121.910156 17.996094 122.074219 18.175781 122.230469 18.359375 C 123.726562 20.113281 124.464844 22.203125 124.449219 24.226562 C 124.433594 26.25 123.664062 28.210938 122.144531 29.710938 C 122.007812 29.847656 121.863281 29.980469 121.714844 30.105469 C 119.890625 31.664062 117.503906 32.324219 115.117188 32.136719 C 112.730469 31.949219 110.34375 30.910156 108.523438 29.066406 C 108.351562 28.890625 108.183594 28.710938 108.027344 28.527344 C 106.53125 26.773438 105.792969 24.683594 105.808594 22.65625 C 105.824219 20.636719 106.59375 18.675781 108.117188 17.171875 " fill-opacity="1" fill-rule="nonzero"/></g><path fill="#e0e6e9" d="M 112.199219 15.105469 C 107.597656 16.722656 105.171875 21.765625 106.792969 26.371094 C 108.410156 30.976562 113.453125 33.398438 118.058594 31.78125 C 122.664062 30.164062 125.085938 25.121094 123.46875 20.515625 C 121.851562 15.910156 116.804688 13.488281 112.199219 15.105469 " fill-opacity="1" fill-rule="evenodd"/><path fill="#e0e6e9" d="M 111.71875 32.339844 C 109.835938 31.902344 108.910156 31.191406 107.488281 29.335938 C 106.070312 27.480469 105.800781 30.234375 108.089844 31.4375 C 110.382812 32.636719 113.601562 32.773438 111.71875 32.339844 " fill-opacity="1" fill-rule="evenodd"/><path fill="#e0e6e9" d="M 118.085938 14.34375 C 119.96875 14.78125 120.898438 15.488281 122.316406 17.34375 C 123.734375 19.199219 124.007812 16.445312 121.714844 15.242188 C 119.421875 14.042969 116.203125 13.90625 118.085938 14.34375 " fill-opacity="1" fill-rule="evenodd"/><path fill="#6e9277" d="M 114.953125 19.902344 C 114.953125 19.902344 114.839844 18.96875 113.84375 18.824219 C 113.84375 18.824219 113.824219 19.933594 114.953125 19.902344 " fill-opacity="1" fill-rule="nonzero"/><g clip-path="url(#f250243c70)"><path fill="#374f59" d="M 119.335938 28.042969 L 118.117188 29.261719 C 118.089844 29.289062 118.054688 29.300781 118.019531 29.300781 L 112.253906 29.300781 C 112.222656 29.300781 112.1875 29.289062 112.160156 29.261719 L 110.941406 28.042969 C 110.894531 27.996094 110.890625 27.917969 110.929688 27.867188 L 112.972656 25.296875 C 113.414062 25.28125 114.199219 25.367188 114.90625 26.011719 C 115.148438 26.230469 115.417969 26.375 115.699219 26.464844 C 115.035156 24.359375 115.136719 21.296875 115.136719 21.296875 C 115.136719 21.285156 115.140625 21.273438 115.140625 21.261719 C 115.125 20.785156 115.210938 20.363281 115.355469 19.996094 C 115.867188 18.664062 117.128906 18.035156 117.128906 18.035156 C 116.195312 18.667969 115.746094 19.382812 115.535156 19.996094 C 115.25 20.816406 115.394531 22.054688 115.394531 22.054688 L 115.398438 22.050781 C 115.46875 23.734375 116.109375 25.648438 116.453125 26.566406 C 117.035156 26.558594 117.582031 26.351562 117.910156 26.058594 L 119.34375 27.867188 C 119.386719 27.917969 119.382812 27.996094 119.335938 28.042969 Z M 119.730469 27.558594 L 116.230469 23.15625 C 116.136719 23.035156 116.082031 22.890625 116.082031 22.738281 L 116.082031 21.25 L 116.359375 21.25 C 116.707031 21.25 116.988281 20.96875 116.988281 20.625 C 116.988281 20.277344 116.707031 19.996094 116.359375 19.996094 L 115.640625 19.996094 C 115.777344 19.625 116.042969 19.34375 116.75 19.371094 C 118.707031 19.449219 118.722656 17.136719 118.722656 17.136719 C 118.722656 17.117188 118.722656 17.09375 118.722656 17.070312 C 116.054688 17.125 115.324219 18.773438 115.148438 19.996094 L 113.917969 19.996094 C 113.570312 19.996094 113.289062 20.277344 113.289062 20.625 C 113.289062 20.96875 113.570312 21.25 113.917969 21.25 L 114.195312 21.25 L 114.195312 22.738281 C 114.195312 22.890625 114.140625 23.035156 114.046875 23.15625 L 110.546875 27.558594 C 110.347656 27.808594 110.367188 28.167969 110.59375 28.390625 L 111.8125 29.609375 C 111.929688 29.730469 112.089844 29.792969 112.253906 29.792969 L 118.019531 29.792969 C 118.1875 29.792969 118.347656 29.730469 118.464844 29.609375 L 119.683594 28.390625 C 119.910156 28.167969 119.929688 27.808594 119.730469 27.558594 " fill-opacity="1" fill-rule="nonzero"/></g><path fill="#6e9277" d="M 114.210938 28.070312 C 114.210938 28.480469 113.878906 28.8125 113.46875 28.8125 C 113.0625 28.8125 112.730469 28.480469 112.730469 28.070312 C 112.730469 27.664062 113.0625 27.332031 113.46875 27.332031 C 113.878906 27.332031 114.210938 27.664062 114.210938 28.070312 " fill-opacity="1" fill-rule="nonzero"/><path fill="#6e9277" d="M 115.535156 27.660156 C 115.535156 27.917969 115.328125 28.125 115.070312 28.125 C 114.816406 28.125 114.609375 27.917969 114.609375 27.660156 C 114.609375 27.40625 114.816406 27.199219 115.070312 27.199219 C 115.328125 27.199219 115.535156 27.40625 115.535156 27.660156 " fill-opacity="1" fill-rule="nonzero"/><path fill="#6e9277" d="M 114.734375 26.460938 C 114.734375 26.605469 114.617188 26.722656 114.472656 26.722656 C 114.328125 26.722656 114.210938 26.605469 114.210938 26.460938 C 114.210938 26.316406 114.328125 26.199219 114.472656 26.199219 C 114.617188 26.199219 114.734375 26.316406 114.734375 26.460938 " fill-opacity="1" fill-rule="nonzero"/><g clip-path="url(#378d855074)"><g clip-path="url(#f570d13b88)"><g clip-path="url(#eb5d4fc4fd)"><g clip-path="url(#cd3389c88c)"><path fill="#004245" d="M 127.460938 32.550781 C 127.464844 32.542969 127.476562 32.542969 127.476562 32.550781 C 127.648438 33.039062 127.566406 33.648438 127.246094 34.050781 C 126.90625 34.476562 126.292969 34.632812 125.765625 34.671875 C 125.492188 34.695312 125.214844 34.6875 124.9375 34.667969 C 124.929688 34.667969 124.929688 34.65625 124.9375 34.652344 C 125.347656 34.542969 125.761719 34.4375 126.140625 34.246094 C 126.347656 34.140625 126.542969 34.007812 126.695312 33.835938 C 126.867188 33.644531 127.015625 33.421875 127.148438 33.203125 C 127.273438 32.996094 127.378906 32.777344 127.460938 32.550781 Z M 127.378906 34.492188 C 127.386719 34.488281 127.394531 34.492188 127.390625 34.5 C 127.277344 34.894531 127.03125 35.230469 126.660156 35.421875 C 126.417969 35.542969 126.136719 35.609375 125.859375 35.601562 C 125.132812 35.585938 124.421875 35.265625 123.8125 34.882812 C 123.347656 34.59375 122.921875 34.246094 122.527344 33.867188 C 122.519531 33.863281 122.527344 33.851562 122.535156 33.855469 C 123.140625 34.261719 123.777344 34.671875 124.472656 34.882812 C 124.707031 34.953125 124.949219 34.992188 125.191406 35.007812 C 125.53125 35.03125 125.882812 35.035156 126.21875 34.972656 C 126.640625 34.894531 127.015625 34.703125 127.378906 34.492188 Z M 125.589844 35.871094 C 125.582031 35.878906 125.515625 35.890625 125.503906 35.894531 C 125.453125 35.90625 125.40625 35.917969 125.359375 35.925781 C 125.25 35.945312 125.140625 35.960938 125.03125 35.96875 C 124.050781 36.039062 123.085938 35.644531 122.277344 35.113281 C 121.53125 34.625 120.890625 34.003906 120.304688 33.34375 C 119.6875 32.652344 119.097656 31.933594 118.449219 31.265625 C 117.753906 30.550781 116.953125 29.875 115.953125 29.667969 C 115.890625 29.65625 115.828125 29.644531 115.765625 29.636719 C 115.746094 29.632812 115.605469 29.625 115.628906 29.59375 C 115.640625 29.570312 115.722656 29.566406 115.75 29.5625 C 115.804688 29.550781 115.863281 29.542969 115.917969 29.539062 C 116.132812 29.515625 116.351562 29.519531 116.566406 29.546875 C 117.050781 29.609375 117.511719 29.792969 117.933594 30.03125 C 119.128906 30.707031 120.066406 31.765625 120.976562 32.777344 C 122.210938 34.148438 123.660156 35.625 125.585938 35.835938 C 125.617188 35.839844 125.59375 35.863281 125.589844 35.871094 Z M 125.589844 35.871094 " fill-opacity="1" fill-rule="nonzero"/></g></g></g></g><g fill="#374f59" fill-opacity="1"><g transform="translate(11.07189, 32.46271)"><g><path d="M 11.234375 -8.78125 C 12.523438 -8.53125 13.582031 -8.015625 14.40625 -7.234375 C 15.226562 -6.460938 15.640625 -5.519531 15.640625 -4.40625 C 15.640625 -3.5625 15.40625 -2.804688 14.9375 -2.140625 C 14.476562 -1.472656 13.863281 -0.945312 13.09375 -0.5625 C 12.320312 -0.1875 11.441406 0 10.453125 0 L 2.328125 0 L 2.328125 -16.9375 L 9.734375 -16.9375 C 10.734375 -16.9375 11.617188 -16.75 12.390625 -16.375 C 13.160156 -16.007812 13.769531 -15.507812 14.21875 -14.875 C 14.675781 -14.25 14.90625 -13.550781 14.90625 -12.78125 C 14.90625 -11.820312 14.566406 -10.992188 13.890625 -10.296875 C 13.210938 -9.609375 12.328125 -9.101562 11.234375 -8.78125 Z M 9.125 -16.453125 L 4.484375 -16.453125 L 4.484375 -8.953125 L 8.765625 -8.953125 C 9.953125 -8.953125 10.894531 -9.28125 11.59375 -9.9375 C 12.300781 -10.59375 12.65625 -11.507812 12.65625 -12.6875 C 12.65625 -13.832031 12.332031 -14.742188 11.6875 -15.421875 C 11.039062 -16.109375 10.1875 -16.453125 9.125 -16.453125 Z M 9.84375 -0.484375 C 10.914062 -0.484375 11.773438 -0.835938 12.421875 -1.546875 C 13.066406 -2.253906 13.390625 -3.195312 13.390625 -4.375 C 13.390625 -5.3125 13.207031 -6.078125 12.84375 -6.671875 C 12.488281 -7.273438 12.015625 -7.722656 11.421875 -8.015625 C 10.835938 -8.316406 10.191406 -8.46875 9.484375 -8.46875 L 4.484375 -8.46875 L 4.484375 -0.484375 Z M 9.84375 -0.484375 "/></g></g><g transform="translate(27.631815, 32.46271)"><g><path d="M 10.015625 0.234375 C 8.753906 0.234375 7.585938 0.0195312 6.515625 -0.40625 C 5.441406 -0.84375 4.507812 -1.457031 3.71875 -2.25 C 2.9375 -3.039062 2.320312 -3.960938 1.875 -5.015625 C 1.425781 -6.078125 1.203125 -7.226562 1.203125 -8.46875 C 1.203125 -9.707031 1.425781 -10.851562 1.875 -11.90625 C 2.320312 -12.96875 2.9375 -13.894531 3.71875 -14.6875 C 4.507812 -15.476562 5.441406 -16.09375 6.515625 -16.53125 C 7.585938 -16.96875 8.753906 -17.1875 10.015625 -17.1875 C 11.273438 -17.1875 12.441406 -16.96875 13.515625 -16.53125 C 14.585938 -16.09375 15.519531 -15.476562 16.3125 -14.6875 C 17.113281 -13.894531 17.738281 -12.96875 18.1875 -11.90625 C 18.632812 -10.851562 18.859375 -9.707031 18.859375 -8.46875 C 18.859375 -7.226562 18.632812 -6.078125 18.1875 -5.015625 C 17.738281 -3.960938 17.113281 -3.039062 16.3125 -2.25 C 15.519531 -1.457031 14.585938 -0.84375 13.515625 -0.40625 C 12.441406 0.0195312 11.273438 0.234375 10.015625 0.234375 Z M 10.015625 -0.234375 C 11.335938 -0.234375 12.488281 -0.578125 13.46875 -1.265625 C 14.457031 -1.953125 15.226562 -2.910156 15.78125 -4.140625 C 16.332031 -5.378906 16.609375 -6.820312 16.609375 -8.46875 C 16.609375 -10.132812 16.332031 -11.578125 15.78125 -12.796875 C 15.226562 -14.023438 14.457031 -14.984375 13.46875 -15.671875 C 12.488281 -16.359375 11.335938 -16.703125 10.015625 -16.703125 C 8.710938 -16.703125 7.566406 -16.359375 6.578125 -15.671875 C 5.597656 -14.984375 4.832031 -14.023438 4.28125 -12.796875 C 3.738281 -11.578125 3.46875 -10.132812 3.46875 -8.46875 C 3.46875 -6.820312 3.738281 -5.378906 4.28125 -4.140625 C 4.832031 -2.910156 5.597656 -1.953125 6.578125 -1.265625 C 7.566406 -0.578125 8.710938 -0.234375 10.015625 -0.234375 Z M 10.015625 -0.234375 "/></g></g><g transform="translate(47.70225, 32.46271)"><g><path d="M 14.234375 -16.9375 L 14.234375 -16.453125 L 8.546875 -16.453125 L 8.546875 0 L 6.390625 0 L 6.390625 -16.453125 L 0.65625 -16.453125 L 0.65625 -16.9375 Z M 14.234375 -16.9375 "/></g></g><g transform="translate(62.591656, 32.46271)"><g><path d="M 14.25 0 L 12.078125 -5.015625 L 3.609375 -5.015625 L 1.40625 0 L 0.71875 0 L 8.15625 -16.9375 L 9.09375 -16.9375 L 16.5 0 Z M 3.796875 -5.5 L 11.859375 -5.5 L 7.84375 -14.71875 Z M 3.796875 -5.5 "/></g></g></g><g fill="#374f59" fill-opacity="1"><g transform="translate(79.829469, 32.46271)"><g><path d="M 15.6875 -16.9375 L 16.265625 -16.9375 L 16.265625 0 L 15.4375 0 L 2.90625 -15.203125 L 2.90625 0 L 2.328125 0 L 2.328125 -16.9375 L 4.140625 -16.9375 L 15.6875 -2.90625 Z M 15.6875 -16.9375 "/></g></g></g><g fill="#374f59" fill-opacity="1"><g transform="translate(98.398856, 32.46271)"><g><path d="M 2.328125 0 L 2.328125 -16.9375 L 4.484375 -16.9375 L 4.484375 0 Z M 2.328125 0 "/></g></g></g></svg>